<?xml version="1.0" encoding="UTF-8"?>
<!DOCTYPE svg PUBLIC "-//W3C//DTD SVG 1.1//EN" "http://www.w3.org/Graphics/SVG/1.1/DTD/svg11.dtd">
<!-- Creator: CorelDRAW -->
<svg xmlns="http://www.w3.org/2000/svg" xml:space="preserve" width="120px" height="120px" version="1.1" style="shape-rendering:geometricPrecision; text-rendering:geometricPrecision; image-rendering:optimizeQuality; fill-rule:evenodd; clip-rule:evenodd"
viewBox="0 0 15.57 15.57"
 xmlns:xlink="http://www.w3.org/1999/xlink"
 xmlns:xodm="http://www.corel.com/coreldraw/odm/2003">
 <defs>
  <style type="text/css">
   <![CDATA[
    .fil0 {fill:none}
    .fil4 {fill:#606062}
    .fil1 {fill:#4B4B4D}
    .fil3 {fill:#FFF212}
    .fil7 {fill:#EC268F}
    .fil5 {fill:#A8CF45}
    .fil6 {fill:#4876A3}
    .fil2 {fill:#D40231}
   ]]>
  </style>
 </defs>
 <g id="Camada_x0020_1">
  <metadata id="CorelCorpID_0Corel-Layer"/>
  <rect class="fil0" width="15.57" height="15.57"/>
  <g id="_2861636178608">
   <path class="fil1" d="M7.79 1.77c3.32,0 6.01,2.69 6.01,6.02 0,3.32 -2.69,6.01 -6.01,6.01 -3.33,0 -6.02,-2.69 -6.02,-6.01 0,-3.33 2.69,-6.02 6.02,-6.02zm0.2 11.45l-0.08 -3.11 1.29 -1.36 3.96 -0.13c-0.39,2.54 -2.54,4.5 -5.17,4.6zm-5.63 -5.21l4.66 1.42 -0.05 3.73c-2.54,-0.38 -4.51,-2.53 -4.61,-5.15z"/>
   <path class="fil2" d="M2.5 6.51l2.85 -0.59c0.02,-0.01 0.04,-0.01 0.06,-0.01 0.08,0 0.14,0.04 0.18,0.1l1.32 1.75c0.15,0.2 0.13,0.14 0.13,0.39l0 0.25 -0.01 0 0 0.01c0,0.11 -0.09,0.2 -0.2,0.2 -0.03,0 -0.06,0 -0.08,-0.01l-4.39 -1.05c0.01,-0.36 0.06,-0.71 0.14,-1.04z"/>
   <path class="fil3" d="M3.99 3.89l0.93 1.23c0.03,0.04 0.05,0.08 0.05,0.13 0,0.11 -0.08,0.19 -0.18,0.21l-2.14 0.54c0.28,-0.8 0.75,-1.52 1.34,-2.11z"/>
   <path class="fil4" d="M7.12 2.39l-0.06 3.94c0,0.01 0,0.02 0,0.02 0,0.12 -0.09,0.21 -0.21,0.21 -0.07,0 -0.13,-0.03 -0.17,-0.09l-2.37 -2.86c0.78,-0.65 1.75,-1.09 2.81,-1.22z"/>
   <path class="fil5" d="M11.16 3.53l-3.07 1.43c-0.21,0.07 -0.32,-0.06 -0.33,-0.26l-0.06 -2.35c0.03,0 0.06,0 0.09,0 1.27,0 2.45,0.44 3.37,1.18z"/>
   <path class="fil6" d="M12.37 4.87l-4.13 4.11c-0.04,0.04 -0.1,0.07 -0.16,0.07 -0.11,0 -0.21,-0.09 -0.21,-0.21 0,0 0,-0.01 0.01,-0.01l-0.09 -3.14 3.7 -1.88c0.34,0.31 0.64,0.67 0.88,1.06z"/>
   <path class="fil7" d="M13.21 8.23l-3.03 0 -0.01 0c-0.11,0 -0.21,-0.1 -0.21,-0.21 0,-0.05 0.02,-0.1 0.06,-0.14l0 0 2.54 -2.7c0.42,0.77 0.66,1.66 0.66,2.61 0,0.15 0,0.29 -0.01,0.44z"/>
  </g>
 </g>
</svg>
